<?xml version="1.0" encoding="UTF-8"?>
<svg width="192" height="192" version="1.1" viewBox="0 0 192 192" xmlns="http://www.w3.org/2000/svg">
 <path d="m130.89 100.33a49.822 49.822 0 0 1-38.849 44.299 49.822 49.822 0 0 1-53.93-23.731 49.822 49.822 0 0 1 6.4145-58.57 49.822 49.822 0 0 1 57.788-11.495" fill="none" stroke="white" stroke-linecap="round" stroke-width="30.924"/>
 <path d="m118.01 78.017c-7.2814 4.2039-12.054 11.696-12.787 20.071-0.91491 10.457-8.5062 19.113-18.755 21.386-10.249 2.2721-20.786-2.3648-26.036-11.456-5.2487-9.091-3.9952-20.535 3.0967-28.275 7.0919-7.7394 18.384-9.9855 27.899-5.5491 7.62 3.5533 16.495 3.1658 23.775-1.0381s12.054-11.696 12.787-20.071c0.91491-10.457 8.5062-19.113 18.755-21.386 10.249-2.2721 20.786 2.3648 26.036 11.456 5.2487 9.091 3.9952 20.535-3.0967 28.275-7.0919 7.7394-18.384 9.9855-27.899 5.5491-7.62-3.5533-16.495-3.1658-23.775 1.0381z" fill="white"/>
</svg>
